<?xml version="1.0" encoding="UTF-8"?>
<svg width="1818px" height="769px" viewBox="0 0 1818 769" version="1.1" xmlns="http://www.w3.org/2000/svg" xmlns:xlink="http://www.w3.org/1999/xlink">
    <!-- Generator: Sketch 50.2 (55047) - http://www.bohemiancoding.com/sketch -->
    <title>edge and flow</title>
    <desc>Created with Sketch.</desc>
    <defs>
        <linearGradient x1="25.1857271%" y1="25.839295%" x2="97.3639214%" y2="-9.73015891%" id="linearGradient-1">
            <stop stop-color="#F3F3F3" offset="0%"></stop>
            <stop stop-color="#4EB3C7" offset="46.3442327%"></stop>
            <stop stop-color="#78FFD6" offset="100%"></stop>
        </linearGradient>
        <linearGradient x1="50%" y1="5.89474475%" x2="50%" y2="83.8888583%" id="linearGradient-2">
            <stop stop-color="#75C2DC" offset="0%"></stop>
            <stop stop-color="#354B67" offset="100%"></stop>
        </linearGradient>
        <linearGradient x1="32.2647514%" y1="64.8645315%" x2="77.9173018%" y2="30.2818398%" id="linearGradient-3">
            <stop stop-color="#F69191" offset="0%"></stop>
            <stop stop-color="#FD4C4C" offset="100%"></stop>
        </linearGradient>
    </defs>
    <g id="Page-1" stroke="none" stroke-width="1" fill="none" fill-rule="evenodd">
        <g id="Recent-work" transform="translate(0.000000, -311.000000)">
            <g id="edge-and-flow" transform="translate(-367.269684, 310.463956)">
                <path d="M1444.44792,9.3196505 C1435.10577,18.5191775 1432.76397,31.1284489 1439.21957,37.4793288 C1445.66891,43.8363746 1458.47366,41.530327 1467.81581,32.3307999 C1477.15796,23.1374388 1479.49976,10.5281675 1473.03789,4.17112163 C1466.58856,-2.1797583 1453.7838,0.120123462 1444.44792,9.3196505" id="Fill-10" fill="#78FFD6"></path>
                <path d="M822.480388,245.794216 L954.795861,245.794216 C1028.47997,245.794216 1073.01078,201.683884 1083.4649,238.442494 C1088.41516,255.845274 1113.05894,240.08856 1137.81022,224.326552 C1157.83699,211.570865 1177.93901,198.82047 1187.7374,203.642226 C1200.67472,210.014777 1175.67082,229.497634 1172.80063,238.934726 C1169.32309,250.356624 1176.79416,258.904522 1195.68684,251.674535 C1226.79659,239.770991 1311.17669,150.714061 1329.09651,129.145834 C1345.19425,109.768833 1370.02616,69.6916271 1389.44019,69.6916271 C1391.63314,69.6916271 1393.75621,70.2050303 1395.79329,71.3165218 C1419.15785,84.0563309 1367.39784,115.913793 1342.02845,139.77381 C1319.62061,160.86039 1251.81661,225.946154 1221.74421,256.131086 C1191.63956,286.33719 1155.66017,308.371185 1131.99999,300.072048 C1118.74556,295.424956 1124.53429,278.016882 1110.35001,271.766066 C1102.80906,268.44747 1091.80133,273.607966 1080.97096,278.763169 C1066.21156,285.786737 1051.77466,292.815597 1046.89428,278.387379 C1040.40681,259.23797 1015.03742,303.628821 905.981281,303.628821 L822.480388,303.628821 L822.480388,303.978986 L0.671479765,303.978986 L0.671479765,245.568365 L822.480388,245.568365 L822.480388,245.794216 Z" id="Combined-Shape" fill="url(#linearGradient-1)"></path>
                <path d="M841.030588,686.298378 L841.030588,744.796696 L918.321898,744.796696 C975.760622,744.796696 997.555659,715.61714 1057.07061,656.10754 C1088.53509,624.637711 1100.0346,609.381721 1128.91985,589.213419 C1142.82201,579.50117 1155.67001,563.934816 1146.26277,555.512182 C1138.66421,548.705581 1120.93066,560.103427 1112.56153,572.35745 C1097.28414,594.719703 1079.20812,619.345472 1050.13558,645.699647 C1030.15992,663.807775 1017.42965,673.445108 1005.5395,672.455155 C993.649355,671.465201 1001.57969,661.54961 989.689539,661.54961 C977.799392,661.54961 955.988302,686.330561 931.212702,686.330561 L899.502074,686.330561 L841.030588,686.298378 Z" id="Path" fill="url(#linearGradient-2)"></path>
                <path d="M2184.61993,399.968703 L2184.61993,342.846022 L1340.2533,342.84376 C1293.58124,342.84376 1340.85254,303.155941 1370.28971,277.21264 C1382.92686,266.079162 1375.68821,253.10229 1364.97607,253.10229 C1359.87985,253.10229 1353.99347,256.042322 1349.08816,263.520342 C1324.42372,301.150661 1298.97974,327.36551 1279.33728,342.84376 C1259.69482,358.316787 1234.16069,359.282872 1237.10387,342.84376 C1240.05236,326.404647 1304.37823,294.001632 1286.23123,281.907291 C1270.02514,271.102805 1260.34179,311.767153 1221.88415,339.940282 C1201.36669,354.974655 1194.26062,370.1918 1202.52806,377.836927 C1210.56216,385.273171 1224.53037,381.753489 1238.29706,378.233806 C1248.28268,375.680208 1258.16224,373.131832 1265.5918,374.755899 C1283.27214,378.625462 1261.66755,399.905444 1293.10397,399.905444 L1310.76309,399.905444 L2184.61993,399.968703 Z" id="Fill-4" fill="url(#linearGradient-3)"></path>
                <path d="M1079.46466,827.91969 L1137.40233,827.91969 L1137.40233,723.348496 C1137.40233,678.038397 1176.86355,657.73781 1168.72414,646.642002 C1164.9847,641.544217 1159.68982,645.017316 1154.51746,648.485089 C1148.35431,652.618717 1142.36694,656.747018 1139.38391,646.386314 C1133.17281,624.812613 1171.84567,593.677234 1192.02907,578.575643 C1208.1907,566.49437 1241.60597,550.828134 1229.7644,536.024846 C1227.88403,533.67571 1225.73198,532.658283 1223.3935,532.658283 C1211.03523,532.66361 1193.52591,561.092954 1183.76714,570.430905 C1169.32075,584.259381 1149.56883,599.70189 1127.00433,622.266383 C1107.35362,641.927749 1095.05928,658.56347 1094.4893,680.424821 C1093.96195,700.981096 1079.19595,719.230849 1079.19595,742.1043 L1079.19595,769.718637" id="Path" fill="url(#linearGradient-2)"></path>
                <path d="M1199.44461,480.034787 C1192.48809,486.891271 1190.73487,496.288107 1195.54996,501.02352 C1200.35878,505.7651 1209.90756,504.044813 1216.86408,497.188329 C1223.83312,490.331845 1225.57382,480.935009 1220.76499,476.19343 C1215.95616,471.458016 1206.40739,473.178303 1199.44461,480.034787" id="Fill-12" fill="#75C2DC"></path>
            </g>
        </g>
    </g>
</svg>