<?xml version="1.0" encoding="UTF-8"?>
<svg width="380px" height="278px" viewBox="0 0 380 278" version="1.1" xmlns="http://www.w3.org/2000/svg" xmlns:xlink="http://www.w3.org/1999/xlink">
    <!-- Generator: Sketch 50.2 (55047) - http://www.bohemiancoding.com/sketch -->
    <title>Combined Shape</title>
    <desc>Created with Sketch.</desc>
    <defs>
        <linearGradient x1="50%" y1="5.89474475%" x2="50%" y2="83.8888583%" id="linearGradient-1">
            <stop stop-color="#75C2DC" offset="0%"></stop>
            <stop stop-color="#354B67" offset="100%"></stop>
        </linearGradient>
    </defs>
    <g id="Page-1" stroke="none" stroke-width="1" fill="none" fill-rule="evenodd">
        <g id="Home-initial-Copy" transform="translate(-1240.000000, -802.000000)" fill="url(#linearGradient-1)">
            <path d="M1105.1587,1082.55298 L1182.05472,1082.59531 L1223.75746,1082.59531 C1256.33992,1082.59531 1285.02375,1050.00581 1300.66051,1050.00581 C1316.29728,1050.00581 1305.86808,1063.04583 1321.50485,1064.34772 C1337.14161,1065.64961 1353.88323,1052.97553 1380.15328,1029.16148 C1418.38665,994.503024 1442.15848,962.117603 1462.24983,932.708939 C1473.25609,916.593639 1496.57753,901.604298 1506.57042,910.555679 C1518.94191,921.632309 1502.04547,942.103667 1483.7627,954.876274 C1445.77563,981.399666 1430.65258,1001.46286 1389.27356,1042.84893 C1311.00527,1121.11017 1282.34255,1159.48429 1206.80472,1159.48429 L1105.1587,1159.48429 L1105.1587,1082.55298 Z M1418.72403,1268.79958 L1418.37065,1192.25921 L1418.37065,1155.94351 C1418.37065,1125.86257 1437.78946,1101.86227 1438.48299,1074.82865 C1439.23256,1046.07873 1455.40089,1024.20104 1481.2436,998.344323 C1510.91823,968.669692 1536.89404,948.361204 1555.89253,930.175335 C1568.72632,917.894969 1591.75288,880.507456 1608.00527,880.500451 C1611.08062,880.500451 1613.91077,881.838471 1616.38366,884.927827 C1631.95654,904.395674 1588.01202,924.998386 1566.75781,940.886503 C1540.21457,960.746649 1489.35578,1001.69288 1497.52401,1030.06451 C1501.44701,1043.6899 1509.32101,1038.26076 1517.42619,1032.82462 C1524.22838,1028.26414 1531.19169,1023.69666 1536.10944,1030.40077 C1546.8136,1044.9929 1494.91803,1071.69026 1494.91803,1131.2777 L1494.91803,1268.79958 L1418.72403,1268.79958 Z M1576.51001,811.295139 C1585.66678,802.278157 1598.22441,800.015803 1604.54851,806.243358 C1610.87261,812.479023 1608.58342,824.836829 1599.41841,833.853811 C1590.26987,842.870793 1577.71225,845.133147 1571.38815,838.897483 C1565.05581,832.669927 1567.36147,820.312121 1576.51001,811.295139 Z" id="Combined-Shape"></path>
        </g>
    </g>
</svg>