<?xml version="1.0" encoding="UTF-8"?>
<svg width="285px" height="208px" viewBox="0 0 285 208" version="1.1" xmlns="http://www.w3.org/2000/svg" xmlns:xlink="http://www.w3.org/1999/xlink">
    <!-- Generator: Sketch 50.2 (55047) - http://www.bohemiancoding.com/sketch -->
    <title>Combined Shape</title>
    <desc>Created with Sketch.</desc>
    <defs>
        <linearGradient x1="50%" y1="5.89474475%" x2="50%" y2="83.8888583%" id="linearGradient-1">
            <stop stop-color="#75C2DC" offset="0%"></stop>
            <stop stop-color="#354B67" offset="100%"></stop>
        </linearGradient>
    </defs>
    <g id="Page-1" stroke="none" stroke-width="1" fill="none" fill-rule="evenodd">
        <g id="Home-initial-Copy-2" transform="translate(-930.000000, -602.000000)" fill="url(#linearGradient-1)">
            <path d="M828.869023,811.914738 L886.541038,811.946481 L917.818092,811.946481 C942.25494,811.946481 963.76781,787.504356 975.495386,787.504356 C987.222961,787.504356 979.401059,797.284373 991.128635,798.260791 C1002.85621,799.237209 1015.41242,789.731645 1035.11496,771.871107 C1063.78999,745.877268 1081.61886,721.588203 1096.68737,699.531705 C1104.94206,687.445229 1122.43315,676.203224 1129.92782,682.916759 C1139.20643,691.224232 1126.5341,706.57775 1112.82202,716.157206 C1084.33172,736.04975 1072.98943,751.097147 1041.95517,782.136694 C983.253953,840.832629 961.756916,869.613219 905.103542,869.613219 L828.869023,869.613219 L828.869023,811.914738 Z M1064.04302,951.599686 L1063.77799,894.194407 L1063.77799,866.957635 C1063.77799,844.396929 1078.34209,826.396702 1078.86224,806.121489 C1079.42442,784.559045 1091.55067,768.150781 1110.9327,748.758242 C1133.18867,726.502269 1152.67053,711.270903 1166.9194,697.631501 C1176.54474,688.421227 1193.81466,660.380592 1206.00395,660.375338 C1208.31046,660.375338 1210.43308,661.378853 1212.28775,663.69587 C1223.9674,678.296756 1191.00902,693.74879 1175.06836,705.664877 C1155.16093,720.559987 1117.01684,751.269657 1123.14301,772.548385 C1126.08525,782.767429 1131.99076,778.695573 1138.06964,774.618464 C1143.17128,771.198105 1148.39377,767.772493 1152.08208,772.800578 C1160.1102,783.744674 1121.18852,803.767694 1121.18852,848.458277 L1121.18852,951.599686 L1064.04302,951.599686 Z M1182.38251,608.471354 C1189.25009,601.708618 1198.6683,600.011852 1203.41138,604.682519 C1208.15446,609.359267 1206.43756,618.627622 1199.56381,625.390358 C1192.7024,632.153095 1183.28419,633.84986 1178.54111,629.173112 C1173.79186,624.502445 1175.5211,615.23409 1182.38251,608.471354 Z" id="Combined-Shape"></path>
        </g>
    </g>
</svg>