<?xml version="1.0" encoding="UTF-8"?>
<svg width="51px" height="51px" viewBox="0 0 51 51" version="1.1" xmlns="http://www.w3.org/2000/svg" xmlns:xlink="http://www.w3.org/1999/xlink">
    <!-- Generator: Sketch 50.2 (55047) - http://www.bohemiancoding.com/sketch -->
    <title>dribbble-icon</title>
    <desc>Created with Sketch.</desc>
    <defs>
        <linearGradient x1="10.3657064%" y1="11.5598513%" x2="100%" y2="100%" id="linearGradient-1">
            <stop stop-color="#90E3E7" offset="0%"></stop>
            <stop stop-color="#57C3CA" offset="100%"></stop>
        </linearGradient>
    </defs>
    <g id="Page-1" stroke="none" stroke-width="1" fill="none" fill-rule="evenodd">
        <g id="Home-initial-Copy" transform="translate(-538.000000, -391.000000)" fill="url(#linearGradient-1)" fill-rule="nonzero">
            <g id="dribbble-icon" transform="translate(538.734375, 391.296875)">
                <path d="M0,25 C0,20.46665 1.1167,16.28335 3.35,12.45 C5.58335,8.61665 8.6167,5.58335 12.45,3.35 C16.28335,1.11665 20.4667,0 25,0 C29.53335,0 33.7167,1.11665 37.55,3.35 C41.38335,5.58335 44.4167,8.61665 46.65,12.45 C48.88335,16.28335 50,20.46665 50,25 C50,29.53335 48.88335,33.71665 46.65,37.55 C44.4167,41.38335 41.38335,44.41665 37.55,46.65 C33.7167,48.88335 29.53335,50 25,50 C20.4667,50 16.28335,48.88335 12.45,46.65 C8.6167,44.41665 5.58335,41.38335 3.35,37.55 C1.1167,33.71665 0,29.53335 0,25 Z M4.15,25 C4.15,30.2 5.9,34.78335 9.4,38.75 C11,35.61665 13.53335,32.63335 17,29.8 C20.4667,26.96665 23.85,25.18335 27.15,24.45 C26.65,23.28335 26.1667,22.23335 25.7,21.3 C19.9667,23.13335 13.7667,24.05 7.1,24.05 C5.8,24.05 4.83335,24.03335 4.2,24 C4.2,24.13335 4.1917,24.3 4.175,24.5 C4.15835,24.7 4.15,24.86665 4.15,25 Z M4.8,19.85 C5.53335,19.91665 6.6167,19.95 8.05,19.95 C13.6167,19.95 18.9,19.2 23.9,17.7 C21.3667,13.2 18.58335,9.45 15.55,6.45 C12.9167,7.78335 10.65835,9.63335 8.775,12 C6.8917,14.36665 5.5667,16.98335 4.8,19.85 Z M12.25,41.45 C16.0167,44.38335 20.2667,45.85 25,45.85 C27.4667,45.85 29.9167,45.38335 32.35,44.45 C31.68335,38.75 30.38335,33.23335 28.45,27.9 C25.38335,28.56665 22.2917,30.25 19.175,32.95 C16.05835,35.65 13.75,38.48335 12.25,41.45 Z M19.9,4.85 C22.83335,7.88335 25.55,11.66665 28.05,16.2 C32.58335,14.3 36,11.88335 38.3,8.95 C34.43335,5.75 30,4.15 25,4.15 C23.3,4.15 21.6,4.38335 19.9,4.85 Z M29.85,19.75 C30.35,20.81665 30.9167,22.16665 31.55,23.8 C34.0167,23.56665 36.7,23.45 39.6,23.45 C41.6667,23.45 43.7167,23.5 45.75,23.6 C45.48335,19.06665 43.85,15.03335 40.85,11.5 C38.68335,14.73335 35.0167,17.48335 29.85,19.75 Z M32.8,27.3 C34.5,32.23335 35.65,37.3 36.25,42.5 C38.88335,40.8 41.03335,38.61665 42.7,35.95 C44.3667,33.28335 45.3667,30.4 45.7,27.3 C43.2667,27.13335 41.05,27.05 39.05,27.05 C37.2167,27.05 35.13335,27.13335 32.8,27.3 Z" id="Shape"></path>
            </g>
        </g>
    </g>
</svg>