<?xml version="1.0" encoding="UTF-8"?>
<svg width="51px" height="52px" viewBox="0 0 51 52" version="1.1" xmlns="http://www.w3.org/2000/svg" xmlns:xlink="http://www.w3.org/1999/xlink">
    <!-- Generator: Sketch 50.2 (55047) - http://www.bohemiancoding.com/sketch -->
    <title>noun_1279838_cc</title>
    <desc>Created with Sketch.</desc>
    <defs>
        <linearGradient x1="10.3657064%" y1="11.5598513%" x2="100%" y2="100%" id="linearGradient-1">
            <stop stop-color="#90E3E7" offset="0%"></stop>
            <stop stop-color="#57C3CA" offset="100%"></stop>
        </linearGradient>
    </defs>
    <g id="Page-1" stroke="none" stroke-width="1" fill="none" fill-rule="evenodd">
        <g id="Home-initial-Copy" transform="translate(-538.000000, -238.000000)" fill="url(#linearGradient-1)" fill-rule="nonzero" stroke="url(#linearGradient-1)" stroke-width="0.25">
            <g id="noun_1279838_cc" transform="translate(538.734375, 238.472656)">
                <g id="Group">
                    <path d="M49.375,21.1875 L42.1875,15.40625 L42.1875,11.5 C42.1875,8.84375 40.15625,6.8125 37.5,6.8125 L33.4375,6.8125 L26.09375,0.875 C25.46875,0.40625 24.6875,0.40625 24.0625,0.875 L16.5625,6.8125 L12.5,6.8125 C9.84375,6.8125 7.8125,8.84375 7.8125,11.5 L7.8125,15.40625 L0.625,21.1875 C0.15625,21.5 0,21.96875 0,22.4375 L0,44.3125 C0,47.75 2.8125,50.5625 6.25,50.5625 L43.75,50.5625 C47.1875,50.5625 50,47.75 50,44.3125 L50,22.4375 C50,21.96875 49.84375,21.5 49.375,21.1875 Z M46.875,44.3125 C46.875,44.625 46.875,44.9375 46.71875,45.25 L35.78125,35.875 L46.875,25.875 L46.875,44.3125 Z M46.09375,22.4375 L42.1875,26.03125 L42.1875,19.46875 L46.09375,22.4375 Z M25,4.15625 L28.28125,6.8125 L21.5625,6.8125 L25,4.15625 Z M10.9375,11.5 C10.9375,10.5625 11.5625,9.9375 12.5,9.9375 L37.5,9.9375 C38.4375,9.9375 39.0625,10.5625 39.0625,11.5 L39.0625,28.6875 C39.0625,28.6875 39.0625,28.6875 39.0625,28.6875 L33.4375,33.84375 L26.09375,27.4375 C25.46875,26.96875 24.6875,26.96875 24.0625,27.4375 L16.71875,33.84375 L10.9375,28.6875 C10.9375,28.6875 10.9375,28.6875 10.9375,28.6875 L10.9375,11.5 Z M3.28125,45.25 C3.125,44.9375 3.125,44.625 3.125,44.3125 L3.125,25.875 L14.21875,35.875 L3.28125,45.25 Z M7.8125,26.03125 L3.90625,22.4375 L7.8125,19.3125 L7.8125,26.03125 Z M6.25,47.4375 C6.09375,47.4375 5.78125,47.4375 5.625,47.4375 L25,30.71875 L44.375,47.4375 C44.21875,47.4375 43.90625,47.4375 43.75,47.4375 L6.25,47.4375 Z" id="Shape"></path>
                    <path d="M17.1875,17.75 L26.5625,17.75 C27.5,17.75 28.125,17.125 28.125,16.1875 C28.125,15.25 27.5,14.625 26.5625,14.625 L17.1875,14.625 C16.25,14.625 15.625,15.25 15.625,16.1875 C15.625,17.125 16.25,17.75 17.1875,17.75 Z" id="Shape"></path>
                    <path d="M17.1875,24 L32.8125,24 C33.75,24 34.375,23.375 34.375,22.4375 C34.375,21.5 33.75,20.875 32.8125,20.875 L17.1875,20.875 C16.25,20.875 15.625,21.5 15.625,22.4375 C15.625,23.375 16.25,24 17.1875,24 Z" id="Shape"></path>
                </g>
            </g>
        </g>
    </g>
</svg>