<?xml version="1.0" encoding="UTF-8"?>
<svg width="51px" height="51px" viewBox="0 0 51 51" version="1.1" xmlns="http://www.w3.org/2000/svg" xmlns:xlink="http://www.w3.org/1999/xlink">
    <!-- Generator: Sketch 50.2 (55047) - http://www.bohemiancoding.com/sketch -->
    <title>noun_1702537_cc</title>
    <desc>Created with Sketch.</desc>
    <defs>
        <linearGradient x1="10.3657064%" y1="11.5598513%" x2="100%" y2="100%" id="linearGradient-1">
            <stop stop-color="#90E3E7" offset="0%"></stop>
            <stop stop-color="#57C3CA" offset="100%"></stop>
        </linearGradient>
    </defs>
    <g id="Page-1" stroke="none" stroke-width="1" fill="none" fill-rule="evenodd">
        <g id="Home-initial-Copy" transform="translate(-538.000000, -320.000000)" fill="url(#linearGradient-1)" fill-rule="nonzero">
            <g id="noun_1702537_cc" transform="translate(538.734375, 319.422925)">
                <g id="Group" transform="translate(0.000000, 0.430959)">
                    <path d="M14.1891892,0.244709459 C6.36347973,0.244709459 0,6.60822297 0,14.4338986 L0,36.0555405 C0,43.8812162 6.36347973,50.2447297 14.1891892,50.2447297 L35.8108108,50.2447297 C43.6365203,50.2447297 50,43.8812162 50,36.0555405 L50,14.4338986 C50,6.60822297 43.6365203,0.244709459 35.8108108,0.244709459 L14.1891892,0.244709459 Z M14.1891892,4.29876351 L35.8108108,4.29876351 C41.4606959,4.29876351 45.9459459,8.78403378 45.9459459,14.4338986 L45.9459459,36.0555405 C45.9459459,41.7054054 41.4606959,46.1906757 35.8108108,46.1906757 L14.1891892,46.1906757 C8.53930405,46.1906757 4.05405405,41.7054054 4.05405405,36.0555405 L4.05405405,14.4338986 C4.05405405,8.78403378 8.53930405,4.29876351 14.1891892,4.29876351 Z M38.5135135,8.35281757 C37.0208108,8.35281757 35.8108108,9.56281757 35.8108108,11.0555203 C35.8108108,12.5481554 37.0208108,13.758223 38.5135135,13.758223 C40.0061486,13.758223 41.2162162,12.5481554 41.2162162,11.0555203 C41.2162162,9.56281757 40.0061486,8.35281757 38.5135135,8.35281757 Z M25,12.4068716 C17.9338514,12.4068716 12.1621622,18.1786284 12.1621622,25.2447297 C12.1621622,32.3108108 17.9338514,38.0825676 25,38.0825676 C32.0661554,38.0825676 37.8378378,32.3108108 37.8378378,25.2447297 C37.8378378,18.1786284 32.0661554,12.4068716 25,12.4068716 Z M25,16.4609257 C29.8751689,16.4609257 33.7837838,20.3696419 33.7837838,25.2447297 C33.7837838,30.1197973 29.8751689,34.0285135 25,34.0285135 C20.1248514,34.0285135 16.2162162,30.1197973 16.2162162,25.2447297 C16.2162162,20.3696419 20.1248514,16.4609257 25,16.4609257 Z" id="Shape"></path>
                </g>
            </g>
        </g>
    </g>
</svg>