<?xml version="1.0" encoding="UTF-8"?>
<svg width="763px" height="309px" viewBox="0 0 763 309" version="1.1" xmlns="http://www.w3.org/2000/svg" xmlns:xlink="http://www.w3.org/1999/xlink">
    <!-- Generator: Sketch 50.2 (55047) - http://www.bohemiancoding.com/sketch -->
    <title>Path</title>
    <desc>Created with Sketch.</desc>
    <defs>
        <linearGradient x1="25.1857271%" y1="25.839295%" x2="97.3639214%" y2="-9.73015891%" id="linearGradient-1">
            <stop stop-color="#4EB3C7" offset="0%"></stop>
            <stop stop-color="#78FFD6" offset="100%"></stop>
        </linearGradient>
    </defs>
    <g id="Page-1" stroke="none" stroke-width="1" fill="none" fill-rule="evenodd">
        <g id="Home-initial-Copy" transform="translate(-1080.000000, -271.000000)" fill="url(#linearGradient-1)">
            <path d="M1080.76327,502.947668 L1254.77174,503.244685 C1351.67392,503.244685 1410.23651,445.235059 1423.98476,493.576414 C1430.49486,516.462861 1462.90397,495.74116 1495.45445,475.012499 C1521.79172,458.237457 1548.22794,441.469376 1561.11383,447.810481 C1578.12773,456.191041 1545.24503,481.813003 1541.47045,494.22375 C1536.89712,509.244721 1546.72235,520.486087 1571.56815,510.97791 C1612.48068,495.323524 1723.4492,378.204498 1747.01561,349.840061 C1768.18579,324.35731 1800.8423,271.651661 1826.37375,271.651661 C1829.2577,271.651661 1832.04977,272.326839 1834.72873,273.788564 C1865.45554,290.542724 1797.3858,332.438565 1764.02244,363.816942 C1734.55383,391.547965 1645.38459,477.142442 1605.83628,516.838733 C1566.24557,556.562867 1518.92897,585.539838 1487.8134,574.62562 C1470.38245,568.514215 1477.99524,545.620807 1459.34144,537.40034 C1449.42433,533.036045 1434.94802,539.822629 1420.70498,546.602251 C1401.29485,555.838965 1382.30884,565.08264 1375.89063,546.108049 C1367.35894,520.924604 1333.99558,579.303142 1190.57554,579.303142 L1080.76327,579.303142" id="Path"></path>
        </g>
    </g>
</svg>