<?xml version="1.0" encoding="UTF-8"?>
<svg width="572px" height="232px" viewBox="0 0 572 232" version="1.1" xmlns="http://www.w3.org/2000/svg" xmlns:xlink="http://www.w3.org/1999/xlink">
    <!-- Generator: Sketch 50.2 (55047) - http://www.bohemiancoding.com/sketch -->
    <title>Path Copy</title>
    <desc>Created with Sketch.</desc>
    <defs>
        <linearGradient x1="25.1857271%" y1="25.839295%" x2="97.3639214%" y2="-9.73015891%" id="linearGradient-1">
            <stop stop-color="#4EB3C7" offset="0%"></stop>
            <stop stop-color="#78FFD6" offset="100%"></stop>
        </linearGradient>
    </defs>
    <g id="Page-1" stroke="none" stroke-width="1" fill="none" fill-rule="evenodd">
        <g id="Home-initial-Copy-2" transform="translate(-810.000000, -203.000000)" fill="url(#linearGradient-1)">
            <path d="M810.572456,377.210751 L941.078802,377.433514 C1013.75544,377.433514 1057.67739,333.926294 1067.98857,370.182311 C1072.87115,387.347146 1097.17798,371.80587 1121.59084,356.259374 C1141.34379,343.678093 1161.17095,331.102032 1170.83537,335.857861 C1183.5958,342.143281 1158.93377,361.359752 1156.10283,370.667812 C1152.67284,381.93354 1160.04176,390.364565 1178.67612,383.233432 C1209.36051,371.492643 1292.5869,283.653374 1310.26171,262.380045 C1326.13934,243.267983 1350.63172,203.738745 1369.78031,203.738745 C1371.94328,203.738745 1374.03732,204.245129 1376.04655,205.341423 C1399.09165,217.907043 1348.03935,249.328924 1323.01683,272.862706 C1300.91537,293.660974 1234.03844,357.856831 1204.37721,387.62905 C1174.68418,417.422151 1139.19673,439.154878 1115.86005,430.969215 C1102.78684,426.385661 1108.49643,409.215605 1094.50608,403.050255 C1087.06824,399.777034 1076.21102,404.866972 1065.52873,409.951689 C1050.97114,416.879224 1036.73163,423.81198 1031.91797,409.581037 C1025.51921,390.693453 1000.49669,434.477356 892.931656,434.477356 L810.572456,434.477356" id="Path-Copy"></path>
        </g>
    </g>
</svg>