<?xml version="1.0" encoding="UTF-8"?>
<svg width="51px" height="51px" viewBox="0 0 51 51" version="1.1" xmlns="http://www.w3.org/2000/svg" xmlns:xlink="http://www.w3.org/1999/xlink">
    <!-- Generator: Sketch 50.2 (55047) - http://www.bohemiancoding.com/sketch -->
    <title>noun_1538695_cc</title>
    <desc>Created with Sketch.</desc>
    <defs>
        <linearGradient x1="10.3657064%" y1="11.5598513%" x2="100%" y2="100%" id="linearGradient-1">
            <stop stop-color="#90E3E7" offset="0%"></stop>
            <stop stop-color="#57C3CA" offset="100%"></stop>
        </linearGradient>
    </defs>
    <g id="Page-1" stroke="none" stroke-width="1" fill="none" fill-rule="evenodd">
        <g id="Home-initial-Copy" transform="translate(-538.000000, -167.000000)" fill="url(#linearGradient-1)" fill-rule="nonzero" stroke="url(#linearGradient-1)">
            <g id="noun_1538695_cc" transform="translate(538.734375, 167.606430)">
                <path d="M37.2828947,49.3421053 C36.3815789,49.1907895 35.4736842,49.0723684 34.5789474,48.8815789 C31.2414183,48.0565745 28.0429153,46.7465847 25.0855263,44.9934211 C20.430821,42.4066461 16.21249,39.1030269 12.5855263,35.2039474 C8.17105263,30.4078947 4.5,25.125 2.18421053,18.9802632 C1.28689682,16.7695339 0.770814745,14.4226952 0.657894737,12.0394737 C0.483029124,9.68209436 1.3149079,7.36096134 2.94736842,5.65131579 C4.32894737,4.23684211 5.66447368,2.76973684 7.15131579,1.48026316 C9.44736842,-0.493421053 11.9473684,-0.493421053 14.1644737,1.57236842 C16.5065789,3.76973684 18.7697368,6.07894737 20.9473684,8.42763158 C22.6047498,10.2142939 22.6047498,12.9764955 20.9473684,14.7631579 C19.7894737,16.0789474 18.5065789,17.2763158 17.2828947,18.5328947 C17.1710526,18.6381579 17.0526316,18.7302632 16.8486842,18.9144737 C20.1165921,24.8298561 24.9965141,29.6960897 30.9210526,32.9473684 L33.8421053,29.9934211 C34.5595197,29.1457943 35.4590865,28.4711192 36.4736842,28.0197368 C38.102809,27.3111467 39.9979609,27.6481778 41.2828947,28.875 C43.7346491,31.2083333 46.125,33.6074561 48.4539474,36.0723684 C50.0887435,37.8244589 50.1426091,40.526247 48.5789474,42.3421053 C47.1052632,44.0789474 45.4736842,45.7236842 43.8223684,47.3157895 C42.6465208,48.3972633 41.1495064,49.0649133 39.5592105,49.2171053 C39.4456684,49.2439169 39.3336622,49.2768599 39.2236842,49.3157895 L37.2828947,49.3421053 Z M38.0131579,46.375 C39.6529269,46.4650156 41.2504499,45.8356155 42.3881579,44.6513158 C43.4934211,43.4934211 44.625,42.3618421 45.7434211,41.2171053 C45.8878614,41.0713173 46.0240388,40.9175687 46.1513158,40.7565789 C46.5360156,40.3693031 46.7469561,39.8424079 46.7357929,39.2966498 C46.7246297,38.7508916 46.4923198,38.2330629 46.0921053,37.8618421 C45.1907895,36.8881579 44.2368421,35.9671053 43.3026316,35.0263158 C42.0855263,33.8092105 40.8815789,32.5855263 39.6513158,31.3881579 C39.2893267,30.9812593 38.7752924,30.7420213 38.2308852,30.7270719 C37.6864781,30.7121225 37.1600894,30.9227905 36.7763158,31.3092105 C36.5921053,31.4605263 36.4276316,31.6315789 36.2565789,31.8026316 C35.0855263,32.9671053 33.9276316,34.1447368 32.75,35.2960526 C32.0495391,36.1002387 30.8777694,36.2959931 29.9539474,35.7631579 C29.2368421,35.4013158 28.5263158,35.0394737 27.8355263,34.6315789 C24.7933071,32.7712933 22.0403347,30.4749331 19.6644737,27.8157895 C17.4622544,25.5602799 15.6363938,22.9658697 14.2565789,20.1315789 C13.5592105,18.5921053 13.7105263,17.8421053 14.9144737,16.6710526 C16.1184211,15.5 17.4078947,14.2565789 18.5986842,12.9934211 C18.9877678,12.6438697 19.2137942,12.1481375 19.2225311,11.6251692 C19.231268,11.1022009 19.021927,10.5991952 18.6447368,10.2368421 C18.5,10.0657895 18.3486842,9.90789474 18.1973684,9.75 L12.4210526,3.94736842 C11.1842105,2.73026316 10.0855263,2.71710526 8.84868421,3.94736842 C7.61184211,5.17763158 6.44736842,6.26315789 5.32236842,7.49342105 C4.76781134,8.06615953 4.32196943,8.73492239 4.00657895,9.46710526 C3.51218226,11.038122 3.49158808,12.71998 3.94736842,14.3026316 C4.49497323,16.7606057 5.35735208,19.1376756 6.51315789,21.375 C8.49621218,25.3201957 11.0108606,28.9748477 13.9868421,32.2368421 C19.1083544,38.0656954 25.5895435,42.5401565 32.8552632,45.2631579 C34.5085367,45.8879937 36.2482799,46.2541386 38.0131579,46.3486842 L38.0131579,46.375 Z" id="Shape"></path>
            </g>
        </g>
    </g>
</svg>