<?xml version="1.0" encoding="UTF-8"?>
<svg width="258px" height="146px" viewBox="0 0 258 146" version="1.1" xmlns="http://www.w3.org/2000/svg" xmlns:xlink="http://www.w3.org/1999/xlink">
    <!-- Generator: Sketch 50.2 (55047) - http://www.bohemiancoding.com/sketch -->
    <title>Fill 4</title>
    <desc>Created with Sketch.</desc>
    <defs>
        <linearGradient x1="35.1064005%" y1="64.8645341%" x2="117.711292%" y2="64.8645341%" id="linearGradient-1">
            <stop stop-color="#F69191" offset="0%"></stop>
            <stop stop-color="#FD4C4C" offset="100%"></stop>
        </linearGradient>
    </defs>
    <g id="Page-1" stroke="none" stroke-width="1" fill="none" fill-rule="evenodd">
        <g id="Home-initial-Copy-2" transform="translate(-1182.000000, -384.000000)" fill="url(#linearGradient-1)">
            <path d="M1443.75,529.125 L1443.75,470.845953 L1321.26594,473.156116 C1275.23203,473.156116 1321.85699,434.010941 1350.89168,408.422359 C1363.35604,397.441108 1356.21636,384.641666 1345.65068,384.641666 C1340.62414,384.641666 1334.81825,387.541499 1329.98001,394.917274 C1305.65281,432.03308 1280.55671,457.889498 1261.18282,473.156116 C1241.80893,488.417583 1216.62392,489.370459 1219.52687,473.156116 C1222.43504,456.941773 1285.8814,424.981798 1267.98251,413.052821 C1251.99801,402.396063 1242.44706,442.504414 1204.51524,470.292337 C1184.27831,485.121147 1177.2694,500.130231 1185.4238,507.670828 C1193.34805,515.005398 1207.12528,511.533839 1220.70374,508.06228 C1230.55283,505.543597 1240.29731,503.030065 1247.62528,504.631926 C1265.06388,508.448581 1243.75469,529.437605 1274.76128,529.437605 L1292.17896,529.437605 L1443.75,529.125 Z" id="Fill-4"></path>
        </g>
    </g>
</svg>