<?xml version="1.0" encoding="UTF-8"?>
<svg width="344px" height="194px" viewBox="0 0 344 194" version="1.1" xmlns="http://www.w3.org/2000/svg" xmlns:xlink="http://www.w3.org/1999/xlink">
    <!-- Generator: Sketch 50.2 (55047) - http://www.bohemiancoding.com/sketch -->
    <title>Fill 4</title>
    <desc>Created with Sketch.</desc>
    <defs>
        <linearGradient x1="35.1064005%" y1="64.8645341%" x2="117.711292%" y2="64.8645341%" id="linearGradient-1">
            <stop stop-color="#F69191" offset="0%"></stop>
            <stop stop-color="#FD4C4C" offset="100%"></stop>
        </linearGradient>
    </defs>
    <g id="Page-1" stroke="none" stroke-width="1" fill="none" fill-rule="evenodd">
        <g id="Home-initial-Copy" transform="translate(-1576.000000, -512.000000)" fill="url(#linearGradient-1)">
            <path d="M1925,705.5 L1925,627.794603 L1761.68793,630.874821 C1700.30938,630.874821 1762.47599,578.681255 1801.1889,544.563145 C1817.80805,529.921477 1808.28848,512.855554 1794.20091,512.855554 C1787.49886,512.855554 1779.75767,516.721999 1773.30668,526.556365 C1740.87041,576.044107 1707.40895,610.51933 1681.5771,630.874821 C1655.74524,651.223444 1622.16523,652.493945 1626.03582,630.874821 C1629.91339,609.255697 1714.50853,566.642397 1690.64335,550.737095 C1669.33068,536.528083 1656.59608,590.005886 1606.02032,627.05645 C1579.03775,646.828197 1569.69253,666.840308 1580.56506,676.894437 C1591.13074,686.673863 1609.50037,682.045118 1627.60498,677.416373 C1640.7371,674.058129 1653.72975,670.706753 1663.50038,672.842569 C1686.75184,677.931441 1658.33959,705.916807 1699.68171,705.916807 L1722.90527,705.916807 L1925,705.5 Z" id="Fill-4"></path>
        </g>
    </g>
</svg>