<?xml version="1.0" encoding="UTF-8"?>
<svg width="1838px" height="309px" viewBox="0 0 1838 309" version="1.1" xmlns="http://www.w3.org/2000/svg" xmlns:xlink="http://www.w3.org/1999/xlink">
    <!-- Generator: Sketch 49.1 (51147) - http://www.bohemiancoding.com/sketch -->
    <title>Combined Shape</title>
    <desc>Created with Sketch.</desc>
    <defs>
        <linearGradient x1="25.1857271%" y1="25.839295%" x2="97.3639214%" y2="-9.73015891%" id="linearGradient-1">
            <stop stop-color="#F3F3F3" offset="0%"></stop>
            <stop stop-color="#4EB3C7" offset="46.3442327%"></stop>
            <stop stop-color="#78FFD6" offset="100%"></stop>
        </linearGradient>
    </defs>
    <g id="Page-1" stroke="none" stroke-width="1" fill="none" fill-rule="evenodd">
        <g id="Home-animation" transform="translate(0.000000, -271.000000)" fill="url(#linearGradient-1)">
            <g id="edge-and-flow">
                <path d="M1075.76327,503.244685 L1249.77174,503.244685 C1346.67392,503.244685 1405.23651,445.235059 1418.98476,493.576414 C1425.49486,516.462861 1457.90397,495.74116 1490.45445,475.012499 C1516.79172,458.237457 1543.22794,441.469376 1556.11383,447.810481 C1573.12773,456.191041 1540.24503,481.813003 1536.47045,494.22375 C1531.89712,509.244721 1541.72235,520.486087 1566.56815,510.97791 C1607.48068,495.323524 1718.4492,378.204498 1742.01561,349.840061 C1763.18579,324.35731 1795.8423,271.651661 1821.37375,271.651661 C1824.2577,271.651661 1827.04977,272.326839 1829.72873,273.788564 C1860.45554,290.542724 1792.3858,332.438565 1759.02244,363.816942 C1729.55383,391.547965 1640.38459,477.142442 1600.83628,516.838733 C1561.24557,556.562867 1513.92897,585.539838 1482.8134,574.62562 C1465.38245,568.514215 1472.99524,545.620807 1454.34144,537.40034 C1444.42433,533.036045 1429.94802,539.822629 1415.70498,546.602251 C1396.29485,555.838965 1377.30884,565.08264 1370.89063,546.108049 C1362.35894,520.924604 1328.99558,579.303142 1185.57554,579.303142 L1075.76327,579.303142 L1075.76327,579.763644 L-5,579.763644 L-5,502.947668 L1075.76327,502.947668 L1075.76327,503.244685 Z" id="Combined-Shape"></path>
            </g>
        </g>
    </g>
</svg>