<?xml version="1.0" encoding="UTF-8"?>
<svg width="465px" height="599px" viewBox="0 0 465 599" version="1.1" xmlns="http://www.w3.org/2000/svg" xmlns:xlink="http://www.w3.org/1999/xlink">
    <!-- Generator: Sketch 49.1 (51147) - http://www.bohemiancoding.com/sketch -->
    <title>Combined Shape</title>
    <desc>Created with Sketch.</desc>
    <defs>
        <linearGradient x1="50%" y1="5.89474475%" x2="50%" y2="83.8888583%" id="linearGradient-1">
            <stop stop-color="#75C2DC" offset="0%"></stop>
            <stop stop-color="#354B67" offset="100%"></stop>
        </linearGradient>
    </defs>
    <g id="Page-1" stroke="none" stroke-width="1" fill="none" fill-rule="evenodd">
        <g id="Artboard" transform="translate(-395.000000, -159.000000)" fill="url(#linearGradient-1)">
            <path d="M438.5,515.84147 C438.5,515.84147 411.5,515.84147 420,482.5 C428.5,449.15853 430.732766,438.952486 463.315229,438.952486 C495.897693,438.952486 524.58152,406.362985 540.218288,406.362985 C555.855055,406.362985 545.425852,419.403008 561.06262,420.704899 C576.699387,422.00679 593.441003,409.332704 619.711054,385.518653 C657.944428,350.860201 681.716255,318.474781 701.807602,289.066117 C712.813859,272.950817 736.135303,257.961476 746.128197,266.912857 C758.49968,277.989487 741.603245,298.460845 723.320472,311.233452 C685.333402,337.756844 670.210353,357.820041 628.831328,399.206103 C550.563044,477.46735 515.5,523 438.5,515.84147 Z M397,724.5 C453.5,649 490,599.5 518.5,578.5 C547,557.5 583,534.36512 641.5,511 C700,487.63488 701.5,470 701.5,453.5 C701.5,437 677.347232,458.219447 678.040761,431.18583 C678.790332,402.435904 694.958663,380.55822 720.801371,354.7015 C750.476002,325.026869 776.451813,304.718381 795.450301,286.532512 C808.284089,274.252147 831.31065,236.864634 847.563045,236.857628 C850.63839,236.857628 853.468548,238.195649 855.941434,241.285005 C871.514311,260.752852 827.569797,281.355564 806.315588,297.243681 C779.772345,317.103827 728.913558,358.050054 737.081788,386.421691 C741.004779,400.047082 748.878784,394.617942 756.983966,389.181796 C763.786153,384.621318 770.749464,380.053835 775.667214,386.757948 C786.371378,401.350076 734.4758,428.047437 734.4758,487.63488 C749.481244,503.211627 718.48931,528.166667 641.5,562.5 C623.44547,570.551406 593.679914,576.752183 574.5,587.5 C531.686294,611.491447 495.654202,637.131183 471,662.5 C436.5,698 454.5,716.5 436.5,744 C414.384601,777.787415 387.793849,736.802025 397,724.5 Z M816.067783,167.652316 C825.224556,158.635334 837.78218,156.37298 844.106282,162.600536 C850.430383,168.836201 848.14119,181.194007 838.976183,190.210989 C829.827645,199.227971 817.270021,201.490325 810.945919,195.25466 C804.613583,189.027104 806.919245,176.669298 816.067783,167.652316 Z" id="Combined-Shape"></path>
        </g>
    </g>
</svg>