<?xml version="1.0" encoding="UTF-8"?>
<svg width="1055px" height="194px" viewBox="0 0 1055 194" version="1.1" xmlns="http://www.w3.org/2000/svg" xmlns:xlink="http://www.w3.org/1999/xlink">
    <!-- Generator: Sketch 49.1 (51147) - http://www.bohemiancoding.com/sketch -->
    <title>Fill 4</title>
    <desc>Created with Sketch.</desc>
    <defs>
        <linearGradient x1="32.2647514%" y1="64.8645315%" x2="77.9173018%" y2="30.2818398%" id="linearGradient-1">
            <stop stop-color="#F69191" offset="0%"></stop>
            <stop stop-color="#FD4C4C" offset="100%"></stop>
        </linearGradient>
    </defs>
    <g id="Page-1" stroke="none" stroke-width="1" fill="none" fill-rule="evenodd">
        <g id="Recent-work" transform="translate(-865.000000, -512.000000)" fill="url(#linearGradient-1)">
            <g id="edge-and-flow" transform="translate(-711.459718, 180.000000)">
                <path d="M2873,526 L2873,450.877796 L1762.57099,450.874821 C1701.19244,450.874821 1763.35906,398.681255 1802.07197,364.563145 C1818.69111,349.921477 1809.17154,332.855554 1795.08398,332.855554 C1788.38192,332.855554 1780.64074,336.721999 1774.18975,346.556365 C1741.75347,396.044107 1708.29202,430.51933 1682.46016,450.874821 C1656.62831,471.223444 1623.04829,472.493945 1626.91889,450.874821 C1630.79645,429.255697 1715.39159,386.642397 1691.52642,370.737095 C1670.21374,356.528083 1657.47914,410.005886 1606.90338,447.05645 C1579.92081,466.828197 1570.5756,486.840308 1581.44813,496.894437 C1592.0138,506.673863 1610.38343,502.045118 1628.48805,497.416373 C1641.62017,494.058129 1654.61281,490.706753 1664.38344,492.842569 C1687.6349,497.931441 1659.22265,525.916807 1700.56478,525.916807 L1723.78834,525.916807 L2873,526 Z" id="Fill-4"></path>
            </g>
        </g>
    </g>
</svg>